<svg width="1160" height="967" viewBox="0 0 1160 967" fill="none" xmlns="http://www.w3.org/2000/svg">
<g filter="url(#filter0_d_13_43)">
<path d="M171.102 59.5574C176.777 53.462 184.73 50 193.059 50H994.468C1004.21 50 1013.34 54.729 1018.97 62.6829L1099.55 176.683C1113.6 196.553 1099.39 224 1075.05 224H86.9206C60.7067 224 47.1012 192.743 64.9638 173.557L171.102 59.5574Z" fill="url(#paint0_linear_13_43)"/>
<g filter="url(#filter1_d_13_43)">
<rect x="50" y="172" width="1060" height="745" rx="30" fill="url(#paint1_linear_13_43)"/>
<g filter="url(#filter2_f_13_43)">
<path d="M1012.48 291.5L1015 834L966 810.5V291.5H1012.48Z" fill="url(#paint2_linear_13_43)"/>
<path d="M1012.12 256L1015 834L966 810.5V291.5L1012.12 256Z" fill="url(#paint3_linear_13_43)"/>
<path d="M148.666 291.029L145 834L188 810.48V291.029H148.666Z" fill="url(#paint4_linear_13_43)"/>
<path d="M148.909 255L145 834L188 810.48V291.029L148.909 255Z" fill="url(#paint5_linear_13_43)"/>
<path d="M148.5 255H1014L978 292.5H179.5L148.5 255Z" fill="url(#paint6_linear_13_43)"/>
<path d="M148.5 255H1014L978 292.5H179.5L148.5 255Z" fill="url(#paint7_linear_13_43)"/>
<path d="M979.521 810H981L1010.51 830.102L1015.75 833.5H144.75L185.5 803.5H969.5L979.521 810Z" fill="url(#paint8_linear_13_43)"/>
</g>
<g filter="url(#filter3_f_13_43)">
<rect x="178" y="291" width="800" height="520" rx="5" fill="#3E3E3E"/>
</g>
</g>
</g>
<defs>
<filter id="filter0_d_13_43" x="0" y="0" width="1160" height="967" filterUnits="userSpaceOnUse" color-interpolation-filters="sRGB">
<feFlood flood-opacity="0" result="BackgroundImageFix"/>
<feColorMatrix in="SourceAlpha" type="matrix" values="0 0 0 0 0 0 0 0 0 0 0 0 0 0 0 0 0 0 127 0" result="hardAlpha"/>
<feOffset/>
<feGaussianBlur stdDeviation="25"/>
<feComposite in2="hardAlpha" operator="out"/>
<feColorMatrix type="matrix" values="0 0 0 0 0.218269 0 0 0 0 0.921827 0 0 0 0 1 0 0 0 0.3 0"/>
<feBlend mode="normal" in2="BackgroundImageFix" result="effect1_dropShadow_13_43"/>
<feBlend mode="normal" in="SourceGraphic" in2="effect1_dropShadow_13_43" result="shape"/>
</filter>
<filter id="filter1_d_13_43" x="46" y="163" width="1068" height="754" filterUnits="userSpaceOnUse" color-interpolation-filters="sRGB">
<feFlood flood-opacity="0" result="BackgroundImageFix"/>
<feColorMatrix in="SourceAlpha" type="matrix" values="0 0 0 0 0 0 0 0 0 0 0 0 0 0 0 0 0 0 127 0" result="hardAlpha"/>
<feMorphology radius="1" operator="dilate" in="SourceAlpha" result="effect1_dropShadow_13_43"/>
<feOffset dy="-5"/>
<feGaussianBlur stdDeviation="1.5"/>
<feComposite in2="hardAlpha" operator="out"/>
<feColorMatrix type="matrix" values="0 0 0 0 1 0 0 0 0 1 0 0 0 0 1 0 0 0 0.6 0"/>
<feBlend mode="normal" in2="BackgroundImageFix" result="effect1_dropShadow_13_43"/>
<feBlend mode="normal" in="SourceGraphic" in2="effect1_dropShadow_13_43" result="shape"/>
</filter>
<filter id="filter2_f_13_43" x="140.75" y="251" width="879" height="587" filterUnits="userSpaceOnUse" color-interpolation-filters="sRGB">
<feFlood flood-opacity="0" result="BackgroundImageFix"/>
<feBlend mode="normal" in="SourceGraphic" in2="BackgroundImageFix" result="shape"/>
<feGaussianBlur stdDeviation="2" result="effect1_foregroundBlur_13_43"/>
</filter>
<filter id="filter3_f_13_43" x="175" y="288" width="806" height="526" filterUnits="userSpaceOnUse" color-interpolation-filters="sRGB">
<feFlood flood-opacity="0" result="BackgroundImageFix"/>
<feBlend mode="normal" in="SourceGraphic" in2="BackgroundImageFix" result="shape"/>
<feGaussianBlur stdDeviation="1.5" result="effect1_foregroundBlur_13_43"/>
</filter>
<linearGradient id="paint0_linear_13_43" x1="386" y1="152" x2="1106.58" y2="255.203" gradientUnits="userSpaceOnUse">
<stop stop-color="#BBBAC0"/>
<stop offset="0.949914" stop-color="#8A8990"/>
</linearGradient>
<linearGradient id="paint1_linear_13_43" x1="50" y1="369.981" x2="1110" y2="719.019" gradientUnits="userSpaceOnUse">
<stop offset="0.155238" stop-color="#D0D0D2"/>
<stop offset="0.462027" stop-color="#CDCFD7"/>
<stop offset="0.693351" stop-color="#999A9E"/>
<stop offset="0.872722" stop-color="#9D9EA2"/>
<stop offset="1" stop-color="#BBBCC2"/>
</linearGradient>
<linearGradient id="paint2_linear_13_43" x1="990.5" y1="256" x2="990.5" y2="834" gradientUnits="userSpaceOnUse">
<stop stop-color="#9E9EA3"/>
<stop offset="1" stop-color="#C3C3C6"/>
</linearGradient>
<linearGradient id="paint3_linear_13_43" x1="990.5" y1="256" x2="990.5" y2="834" gradientUnits="userSpaceOnUse">
<stop stop-color="#9E9EA3"/>
<stop offset="1" stop-color="#C3C3C6"/>
</linearGradient>
<linearGradient id="paint4_linear_13_43" x1="166.5" y1="834" x2="166.5" y2="255" gradientUnits="userSpaceOnUse">
<stop stop-color="#BFBFC7"/>
<stop offset="1" stop-color="#CACBCD"/>
</linearGradient>
<linearGradient id="paint5_linear_13_43" x1="166.5" y1="834" x2="166.5" y2="255" gradientUnits="userSpaceOnUse">
<stop stop-color="#BFBFC7"/>
<stop offset="1" stop-color="#CACBCD"/>
</linearGradient>
<linearGradient id="paint6_linear_13_43" x1="148.5" y1="273.75" x2="1014" y2="273.75" gradientUnits="userSpaceOnUse">
<stop stop-color="#979799"/>
<stop offset="0.5" stop-color="#ABABAF"/>
<stop offset="1" stop-color="#7F7F82"/>
</linearGradient>
<linearGradient id="paint7_linear_13_43" x1="148.5" y1="273.75" x2="1014" y2="273.75" gradientUnits="userSpaceOnUse">
<stop stop-color="#979799"/>
<stop offset="0.5" stop-color="#ABABAF"/>
<stop offset="1" stop-color="#7F7F82"/>
</linearGradient>
<linearGradient id="paint8_linear_13_43" x1="144.75" y1="818.5" x2="1015.75" y2="818.5" gradientUnits="userSpaceOnUse">
<stop stop-color="#D1D0DA"/>
<stop offset="0.5" stop-color="#AFAFB2"/>
<stop offset="1" stop-color="#C9C9CD"/>
</linearGradient>
</defs>
</svg>
